<svg width="359" height="72" viewBox="0 0 359 72" fill="none" xmlns="http://www.w3.org/2000/svg">
<path d="M2 2C19.7562 2 19.7562 20 37.5125 20C55.2687 20 55.2687 2 73.025 2C90.7812 2 90.7812 20 108.496 20C126.253 20 126.253 2 143.967 2C161.723 2 161.723 20 179.438 20C197.194 20 197.194 2 214.949 2C232.706 2 232.706 20 250.463 20C268.218 20 268.218 2 285.975 2C303.731 2 303.731 20 321.488 20C339.243 20 339.243 2 357 2" stroke="#4F4F4F" stroke-width="3" stroke-miterlimit="10" stroke-linecap="round"/>
<path d="M2 52C19.7562 52 19.7562 70 37.5125 70C55.2687 70 55.2687 52 73.025 52C90.7812 52 90.7812 70 108.496 70C126.253 70 126.253 52 143.967 52C161.723 52 161.723 70 179.438 70C197.194 70 197.194 52 214.949 52C232.706 52 232.706 70 250.463 70C268.218 70 268.218 52 285.975 52C303.731 52 303.731 70 321.488 70C339.243 70 339.243 52 357 52" stroke="#4F4F4F" stroke-width="3" stroke-miterlimit="10" stroke-linecap="round"/>
</svg>
