<svg width="22" height="23" viewBox="0 0 22 23" fill="none" xmlns="http://www.w3.org/2000/svg">
<path d="M5.76 4.83999L3.96 3.04999L2.55 4.45999L4.34 6.24999L5.76 4.83999ZM3 10.5H0V12.5H3V10.5ZM12 0.549988H10V3.49999H12V0.549988ZM19.45 4.45999L18.04 3.04999L16.25 4.83999L17.66 6.24999L19.45 4.45999ZM16.24 18.16L18.03 19.96L19.44 18.55L17.64 16.76L16.24 18.16ZM19 10.5V12.5H22V10.5H19ZM11 5.49999C7.69 5.49999 5 8.18999 5 11.5C5 14.81 7.69 17.5 11 17.5C14.31 17.5 17 14.81 17 11.5C17 8.18999 14.31 5.49999 11 5.49999ZM10 22.45H12V19.5H10V22.45ZM2.55 18.54L3.96 19.95L5.75 18.15L4.34 16.74L2.55 18.54Z" fill="#111111"/>
</svg>
