<svg width="152" height="160" viewBox="0 0 152 160" fill="none" xmlns="http://www.w3.org/2000/svg">
<path d="M72.067 4.21635C72.8755 -0.144873 79.1245 -0.144875 79.933 4.21635L86.1066 37.5196C86.6849 40.6393 90.4913 41.8761 92.7929 39.6921L117.363 16.378C120.58 13.3249 125.636 16.998 123.726 21.0015L109.146 51.5732C107.78 54.437 110.132 57.6749 113.278 57.2609L146.859 52.8411C151.257 52.2623 153.188 58.2055 149.29 60.3221L119.524 76.4848C116.736 77.9989 116.736 82.0011 119.524 83.5152L149.29 99.6779C153.188 101.795 151.257 107.738 146.859 107.159L113.278 102.739C110.132 102.325 107.78 105.563 109.146 108.427L123.726 138.999C125.636 143.002 120.58 146.675 117.363 143.622L92.7929 120.308C90.4913 118.124 86.6849 119.361 86.1066 122.48L79.933 155.784C79.1245 160.145 72.8755 160.145 72.067 155.784L65.8934 122.48C65.3151 119.361 61.5087 118.124 59.2071 120.308L34.6373 143.622C31.4198 146.675 26.3642 143.002 28.2736 138.999L42.8542 108.427C44.2201 105.563 41.8676 102.325 38.7219 102.739L5.14083 107.159C0.743225 107.738 -1.18784 101.795 2.7101 99.6779L32.4756 83.5152C35.264 82.0011 35.264 77.9989 32.4756 76.4848L2.7101 60.3221C-1.18784 58.2055 0.743227 52.2623 5.14083 52.8411L38.7219 57.2609C41.8676 57.6749 44.2201 54.437 42.8542 51.5732L28.2736 21.0015C26.3642 16.998 31.4198 13.3249 34.6373 16.378L59.2071 39.6921C61.5087 41.8761 65.3151 40.6393 65.8934 37.5196L72.067 4.21635Z" fill="#FFDE81"/>
</svg>
